<svg width="547" height="72" viewBox="0 0 547 72" fill="none" xmlns="http://www.w3.org/2000/svg">
<rect x="20.1055" y="2" width="70" height="70" rx="17.5" fill="white"/>
<circle cx="54.6055" cy="32.5" r="28.5" fill="#D9D9D9"/>
<path d="M76.1014 30.0838C76.4557 31.0164 76.7168 31.9968 76.7918 32.9915C77.5956 43.6478 66.5791 50.5658 55.1055 52C42.0046 52.9358 34.1578 46.0188 33.2039 34.0386C33.0701 32.3581 33.2809 30.6539 33.8407 29.0637C37.3736 19.0269 43.9261 21.0515 50.5628 23.1713C53.5283 24.1184 56.6812 24.1159 59.6869 23.3057C67.2214 21.275 72.3399 20.1816 76.1014 30.0838Z" fill="#838383"/>
<rect x="476.605" y="2.5" width="69" height="69" rx="17" fill="white" stroke="#D4D4D8"/>
<rect x="248.605" y="2.5" width="69" height="69" rx="17" fill="white" stroke="#D4D4D8"/>
<rect x="400.605" y="2.5" width="69" height="69" rx="17" fill="white" stroke="#D4D4D8"/>
<path d="M494.388 2H527.105V46.7639C527.105 48.2507 525.541 49.2177 524.211 48.5528L511.973 42.434C511.425 42.1599 510.782 42.1523 510.227 42.4132L496.976 48.6493C495.645 49.2757 494.115 48.299 494.124 46.8279L494.388 2Z" fill="#958E8E"/>
<circle cx="435.601" cy="36.4953" r="26.4953" fill="#D9D9D9"/>
<circle cx="420.39" cy="42.8736" r="3.27103" fill="#978585"/>
<circle cx="452.121" cy="42.8736" r="3.27103" fill="#978585"/>
<path d="M442.583 46.9214C443.483 47.6355 439.799 50.4978 436.367 50.4978C432.934 50.4978 428.762 47.881 429.906 46.736C431.215 45.1824 432.85 48.6988 436.285 48.4535C439.965 48.6988 441.684 44.4463 442.583 46.9214Z" fill="#978585"/>
<rect x="324.105" y="2" width="70" height="70" rx="17.5" fill="white"/>
<mask id="mask0_1458_57" style="mask-type:alpha" maskUnits="userSpaceOnUse" x="324" y="2" width="71" height="70">
<rect x="324.105" y="2" width="70" height="70" rx="17.5" fill="#D9D9D9"/>
</mask>
<g mask="url(#mask0_1458_57)">
<g opacity="0.4" filter="url(#filter0_d_1458_57)">
<path d="M359.229 19.7223C359.229 29.425 350.274 38.5211 340.635 40.1617C322.724 43.2103 311.65 27.0367 324.434 19.7223C317.94 14.5273 314.111 -5.70712 341.661 2.15391C346.65 -5.84382 359.638 3.65782 359.229 19.7223Z" fill="#958E8E"/>
</g>
<path d="M394.073 37.4102L394.073 71.9658L324.105 72L394.073 37.4102Z" fill="#D9D9D9"/>
<circle cx="369.496" cy="22.5078" r="2.32422" fill="#838383"/>
<circle cx="377.699" cy="15.2617" r="2.32422" fill="#838383"/>
<circle cx="379.613" cy="26.4727" r="2.32422" fill="#838383"/>
<path d="M324.105 48.8262H371.273L324.105 72V48.8262Z" fill="#958E8E"/>
<circle cx="369.701" cy="38.709" r="2.93945" fill="#838383"/>
<path d="M369.496 40.8281L371.615 42.9473L372.709 44.8613L375.307 48.9629L378.52 52.3809L380.707 55.9355L377.289 58.3281L372.094 59.3877L365.531 61.0625L366.01 58.3281V54.9785V48.9629L367.309 43.8359L368.129 41.8535L369.496 40.8281Z" fill="#838383"/>
<path d="M367.719 60.4473L368.949 60.1055L368.539 64.3438H367.855L367.719 60.4473Z" fill="#838383"/>
<path d="M371.068 59.559L372.572 59.2393L372.777 63.3871H372.23L371.068 59.559Z" fill="#838383"/>
</g>
<circle cx="283.105" cy="37" r="33" fill="#D9D9D9"/>
<circle cx="265.605" cy="41.5" r="3.5" fill="#838383"/>
<circle cx="300.605" cy="41.5" r="3.5" fill="#838383"/>
<path d="M271.105 6.28868L273.029 5.56481C274.078 5.16992 275.159 4.86395 276.259 4.65014L277.105 4.48571L278.518 4.25709C279.574 4.08597 280.643 4 281.714 4H283.105H284.497C285.568 4 286.636 4.08597 287.693 4.25709L289.105 4.48571L289.545 4.55694C291.245 4.83211 292.902 5.3256 294.475 6.02515L295.105 6.30544V21H271.105V6.28868Z" fill="#838383"/>
<rect x="282.105" y="21" width="1" height="49" fill="#958E8E"/>
<path d="M294.105 48.0802C294.105 53.6031 289.128 56.0802 283.605 56.0802C278.083 56.0802 273.105 53.6035 273.105 48.0806C274.605 46.5806 278.105 47.0804 283.605 47.0796C288.605 47.0801 293.605 46.5796 294.105 48.0802Z" fill="#838383"/>
<path d="M287.601 52.9996C288.252 54.2548 286.488 54.9123 283.287 55.4012C282.836 55.4702 282.375 55.4684 281.922 55.4065C280.223 55.1744 279.272 55.0334 278.678 54.6275C277.66 53.9308 278.047 52.2633 279.193 51.8068C279.858 51.5419 280.806 51.3218 282.195 51.1079C282.684 51.0324 283.186 51.0373 283.673 51.1259C286.215 51.5876 287.126 52.084 287.601 52.9996Z" fill="#958E8E"/>
<circle cx="289.105" cy="24" r="1" fill="#958E8E"/>
<circle cx="277.105" cy="66" r="1" fill="#958E8E"/>
<circle cx="289.105" cy="66" r="1" fill="#958E8E"/>
<circle cx="277.105" cy="24" r="1" fill="#958E8E"/>
<mask id="mask1_1458_57" style="mask-type:alpha" maskUnits="userSpaceOnUse" x="172" y="2" width="71" height="70">
<rect x="172.105" y="2" width="70" height="70" rx="17.5" fill="#F6F5F3"/>
</mask>
<g mask="url(#mask1_1458_57)">
<rect x="171.605" y="1.5" width="70" height="70" fill="white"/>
</g>
<rect x="96.1055" y="2" width="70" height="70" rx="17.5" fill="white"/>
<path d="M133.39 31.3118C133.282 30.2232 132.819 29.3776 132 28.7749C131.182 28.1721 130.071 27.8707 128.667 27.8707C127.714 27.8707 126.908 28.0057 126.252 28.2756C125.595 28.5365 125.091 28.9008 124.74 29.3686C124.399 29.8364 124.228 30.3672 124.228 30.9609C124.21 31.4557 124.313 31.8875 124.538 32.2564C124.772 32.6252 125.091 32.9446 125.496 33.2145C125.901 33.4754 126.369 33.7048 126.9 33.9027C127.43 34.0916 127.997 34.2536 128.6 34.3885L131.083 34.9822C132.288 35.2521 133.395 35.612 134.402 36.0618C135.41 36.5116 136.283 37.0649 137.02 37.7216C137.758 38.3783 138.329 39.152 138.734 40.0426C139.148 40.9332 139.359 41.9543 139.368 43.1058C139.359 44.7971 138.927 46.2635 138.073 47.505C137.227 48.7375 136.004 49.6955 134.402 50.3793C132.81 51.054 130.889 51.3913 128.64 51.3913C126.409 51.3913 124.466 51.0495 122.811 50.3658C121.164 49.6821 119.878 48.67 118.951 47.3295C118.034 45.9801 117.552 44.3113 117.507 42.3232H123.162C123.225 43.2498 123.49 44.0234 123.958 44.6442C124.435 45.2559 125.069 45.7192 125.86 46.0341C126.661 46.34 127.565 46.4929 128.573 46.4929C129.562 46.4929 130.422 46.349 131.15 46.0611C131.888 45.7732 132.459 45.3729 132.864 44.8601C133.269 44.3473 133.471 43.758 133.471 43.0923C133.471 42.4716 133.287 41.9498 132.918 41.527C132.558 41.1042 132.027 40.7443 131.326 40.4474C130.633 40.1506 129.783 39.8807 128.775 39.6378L125.766 38.8821C123.436 38.3153 121.596 37.4292 120.247 36.2237C118.897 35.0182 118.227 33.3944 118.236 31.3523C118.227 29.679 118.672 28.2171 119.572 26.9666C120.481 25.7161 121.727 24.7401 123.31 24.0384C124.893 23.3366 126.693 22.9858 128.708 22.9858C130.759 22.9858 132.549 23.3366 134.078 24.0384C135.617 24.7401 136.813 25.7161 137.668 26.9666C138.523 28.2171 138.963 29.6655 138.99 31.3118H133.39ZM146.551 51.3509C145.66 51.3509 144.895 51.036 144.257 50.4062C143.627 49.7675 143.312 49.0028 143.312 48.1122C143.312 47.2306 143.627 46.4749 144.257 45.8452C144.895 45.2154 145.66 44.9006 146.551 44.9006C147.414 44.9006 148.17 45.2154 148.818 45.8452C149.465 46.4749 149.789 47.2306 149.789 48.1122C149.789 48.706 149.636 49.2502 149.33 49.745C149.034 50.2308 148.642 50.6222 148.156 50.919C147.671 51.2069 147.135 51.3509 146.551 51.3509Z" fill="#838383"/>
<rect x="96.6055" y="2.5" width="69" height="69" rx="17" stroke="#D4D4D8"/>
<rect x="20.6055" y="1.5" width="69" height="69" rx="17" stroke="#D4D4D8"/>
<path d="M185.599 29.4962C185.599 29.9962 188.005 30.9031 189.599 31.9962C190.992 32.9522 191.599 33.4962 193.529 34.9904C194.933 36.0772 197.016 37.7013 199.907 40.1646C201.489 41.5124 203.454 43.8327 204.659 45.4776C206.239 47.6339 207.476 48.7467 208.49 50.6345C209.413 52.3547 210.463 53.9026 210.099 54.9962C209.599 56.4962 209.599 56.1573 209.099 56.4962C207.93 57.2881 205.508 56.9962 203.658 55.6397C202.099 54.4962 199.599 50.6345 198.914 47.9962C198.364 45.8766 198.109 42.0658 198.914 36.2559C199.212 34.1048 200.797 32.2424 203.105 29.4962C206.035 26.0109 207.882 25.224 209.099 24.4962C211.605 22.9962 214.105 21.4962 217.605 20.4962C224.239 18.6008 227.603 17.6265 228.605 17.4956C228.965 17.4486 227.798 18.0979 228.105 17.9962C229.605 17.4994 226.889 21.6896 226.105 22.9962C224.605 25.4962 223.124 28.6015 219.105 32.4962C214.755 36.7122 212.88 37.4039 210.605 37.9962C208.312 38.5935 206.385 37.8082 205.605 37.4962C204.007 36.8566 203.371 35.7251 202.106 34.4962C199.782 32.2401 199.618 30.415 197.607 28.9962C196.238 28.0304 195.607 26.9975 189.107 27.9962C187.837 28.1914 185.191 29.4856 185.604 29.4962C186.56 29.5208 187.099 28.4962 186.099 29.4962" stroke="#958E8E" stroke-width="3.5" stroke-linecap="round"/>
<path d="M69.1055 30C69.1055 34.5 67.6055 34 66.1055 34C64.6043 36.5 64.1055 33 64.1055 30.5C64.1055 28.567 65.1055 27.5 66.1055 27C67.1055 27 69.1055 27.9384 69.1055 30Z" fill="#D9D9D9"/>
<path d="M70.7754 35.5C70.7754 37.1569 69.4322 38.5 67.7754 38.5C66.1185 38.5 64.7754 37.1569 64.7754 35.5C64.7754 33.8431 66.1185 32.5 67.7754 32.5C69.4322 32.5 70.7754 33.8431 70.7754 35.5Z" fill="#838383"/>
<path d="M43.7754 30C43.7754 34.5 45.2754 34 46.7754 34C48.2766 36.5 48.7754 33 48.7754 30.5C48.7754 28.567 47.7754 27.5 46.7754 27C45.7754 27 43.7754 27.9384 43.7754 30Z" fill="#D9D9D9"/>
<path d="M42.1055 35.5C42.1055 37.1569 43.4486 38.5 45.1055 38.5C46.7623 38.5 48.1055 37.1569 48.1055 35.5C48.1055 33.8431 46.6055 33 45.1055 32.5C43.4486 32.5 42.1055 33.8431 42.1055 35.5Z" fill="#838383"/>
<path d="M56.968 39.6375C56.5218 40.0837 55.7789 40.0101 55.4288 39.4851L55.1465 39.0616C55.1192 39.0206 55.0949 38.9776 55.0739 38.933L54.2028 37.0837C53.9016 36.4444 54.3406 35.7028 55.046 35.6594L55.6055 35.625H56.84L58.0689 35.578C58.8992 35.5462 59.4038 36.4823 58.9209 37.1585L57.6536 38.9327C57.6216 38.9775 57.5859 39.0196 57.5469 39.0585L56.968 39.6375Z" fill="#D9D9D9"/>
<rect x="324.605" y="2.5" width="69" height="69" rx="17" stroke="#D4D4D8"/>
<rect x="172.605" y="2.5" width="69" height="69" rx="17" stroke="#D4D4D8"/>
<path d="M3.5 50C3.59036 50 3.68073 50 6.99336 50C10.306 50 16.8382 50 103.647 44.9141C190.455 39.8283 357.341 29.6566 444.675 24.5516C532.008 19.4466 534.731 19.7165 537.5 20.3145" stroke="black" stroke-width="7" stroke-linecap="round"/>
<defs>
<filter id="filter0_d_1458_57" x="318.363" y="-0.734375" width="41.4219" height="42.3682" filterUnits="userSpaceOnUse" color-interpolation-filters="sRGB">
<feFlood flood-opacity="0" result="BackgroundImageFix"/>
<feColorMatrix in="SourceAlpha" type="matrix" values="0 0 0 0 0 0 0 0 0 0 0 0 0 0 0 0 0 0 127 0" result="hardAlpha"/>
<feOffset dy="0.546875"/>
<feGaussianBlur stdDeviation="0.273438"/>
<feComposite in2="hardAlpha" operator="out"/>
<feColorMatrix type="matrix" values="0 0 0 0 0 0 0 0 0 0 0 0 0 0 0 0 0 0 0.25 0"/>
<feBlend mode="normal" in2="BackgroundImageFix" result="effect1_dropShadow_1458_57"/>
<feBlend mode="normal" in="SourceGraphic" in2="effect1_dropShadow_1458_57" result="shape"/>
</filter>
</defs>
</svg>
