<svg width="32" height="32" viewBox="0 0 733 733" fill="none" xmlns="http://www.w3.org/2000/svg">
<circle cx="366.5" cy="366.5" r="366.5" fill="#393939"/>
<path d="M418.942 463.976L310.502 654.868C309.754 656.186 308.355 657 306.84 657C304.513 657 302.627 655.114 302.627 652.788V651.448C302.627 650.864 302.719 650.284 302.9 649.729L350.93 502.284C352.251 498.231 352.923 493.996 352.923 489.733V487.99C352.923 481.847 347.943 476.867 341.8 476.867C340.507 476.867 339.225 477.092 338.009 477.533L219.306 520.562C216.864 521.447 214.287 521.9 211.69 521.9H207.072C204.167 521.9 201.378 520.758 199.307 518.72C197.191 516.639 196 513.795 196 510.828V507.114C196 504.142 196.664 501.208 197.945 498.526L394.527 86.7257C397.072 81.3945 402.454 78 408.361 78C414.411 78 419.895 81.5583 422.361 87.0833L534.999 339.522C535.659 341.002 536 342.604 536 344.224C536 346.801 535.138 349.303 533.551 351.332L529.148 356.965C521.115 367.24 507.691 371.674 495.118 368.207L488.928 366.499C476.496 363.07 466.334 354.111 461.375 342.207L420.822 244.869C419.3 241.214 415.729 238.833 411.769 238.833C407.77 238.833 404.121 241.117 402.372 244.714L334.132 385.103C333.583 386.233 333.119 387.402 332.745 388.601L330.311 396.382C329.659 398.467 329.951 400.732 331.109 402.584C332.477 404.772 334.875 406.1 337.454 406.1H339.846H407.743C414.445 406.1 420.81 409.043 425.151 414.149C427.831 417.302 429.605 421.123 430.283 425.205L430.365 425.698C431.034 429.725 430.693 433.855 429.372 437.718L424.969 450.592C423.382 455.231 421.364 459.713 418.942 463.976Z" fill="white" stroke="white"/>
</svg>
