<svg width="1374" height="1374" viewBox="0 0 1374 1374" fill="none" xmlns="http://www.w3.org/2000/svg">
<rect x="1" y="1" width="1372" height="1372" rx="149" stroke="black" stroke-width="2"/>
<rect x="1" y="1" width="1372" height="1372" rx="149" fill="white" stroke="black" stroke-width="2"/>
<path d="M532 478.5C737.784 478.5 904.5 641.301 904.5 842C904.5 1042.7 737.784 1205.5 532 1205.5C326.216 1205.5 159.5 1042.7 159.5 842C159.5 641.301 326.216 478.5 532 478.5Z" stroke="black" stroke-width="5"/>
<path d="M919 252.5C1124.78 252.5 1291.5 415.522 1291.5 616.5C1291.5 817.478 1124.78 980.5 919 980.5C713.22 980.5 546.5 817.478 546.5 616.5C546.5 415.522 713.22 252.5 919 252.5Z" stroke="black" stroke-width="5"/>
<path d="M556 112.5C775.038 112.5 952.5 285.822 952.5 499.5C952.5 713.178 775.038 886.5 556 886.5C336.962 886.5 159.5 713.178 159.5 499.5C159.5 285.822 336.962 112.5 556 112.5Z" stroke="black" stroke-width="5"/>
<circle cx="990.5" cy="1124.5" r="82.25" fill="#FF0000" stroke="black" stroke-width="2.5"/>
</svg>
