<svg width="33" height="33" viewBox="0 0 33 33" fill="none" xmlns="http://www.w3.org/2000/svg" shape-rendering="geometricPrecision">
<rect x="0.0235445" y="0.0235445" width="32.303" height="32.303" rx="3.50813" fill="black"/>
<path d="M12.5256 11.2661C17.3707 11.2661 21.2961 15.0994 21.2961 19.8247C21.2961 24.55 17.3707 28.3833 12.5256 28.3833C7.6806 28.3833 3.75513 24.55 3.75513 19.8247C3.75518 15.0994 7.68063 11.2662 12.5256 11.2661Z" stroke="white" stroke-width="0.5" vector-effect="non-scaling-stroke"/>
<path d="M21.6372 5.94482C26.4821 5.94482 30.4076 9.78328 30.4077 14.5151C30.4077 19.2471 26.4822 23.0854 21.6372 23.0854C16.7923 23.0854 12.8667 19.247 12.8667 14.5151C12.8668 9.78331 16.7923 5.94486 21.6372 5.94482Z" stroke="white" stroke-width="0.5" vector-effect="non-scaling-stroke"/>
<path d="M13.0911 2.64844C18.2481 2.64859 22.426 6.72991 22.426 11.7607C22.4258 16.7914 18.248 20.8719 13.0911 20.8721C7.93404 20.8721 3.75531 16.7915 3.75513 11.7607C3.75513 6.72981 7.93393 2.64844 13.0911 2.64844Z" stroke="white" stroke-width="0.5" vector-effect="non-scaling-stroke"/>
<circle cx="23.3208" cy="26.4762" r="1.93653" fill="white" stroke="black" stroke-width="0.25"/>
</svg>
