<svg width="173" height="173" viewBox="0 0 173 173" fill="none" xmlns="http://www.w3.org/2000/svg">
<g clip-path="url(#clip0_12_33)">
<path d="M138.4 0H34.6C15.4909 0 0 15.4909 0 34.6V138.4C0 157.509 15.4909 173 34.6 173H138.4C157.509 173 173 157.509 173 138.4V34.6C173 15.4909 157.509 0 138.4 0Z" fill="black"/>
<path d="M86.4999 100.34C94.1435 100.34 100.34 94.1437 100.34 86.5C100.34 78.8564 94.1435 72.66 86.4999 72.66C78.8563 72.66 72.6599 78.8564 72.6599 86.5C72.6599 94.1437 78.8563 100.34 86.4999 100.34Z" fill="white"/>
<path d="M86.4999 86.5C99.4749 73.525 73.5249 56.225 90.8249 38.925" stroke="white" stroke-width="10" stroke-linecap="round"/>
<path d="M86.5 86.5C108.125 90.825 112.45 64.875 134.075 56.225" stroke="white" stroke-width="10" stroke-linecap="round"/>
<path d="M86.5 86.5C103.8 108.125 125.425 90.825 134.075 116.775" stroke="white" stroke-width="10" stroke-linecap="round"/>
<path d="M86.5 86.5C69.2 99.475 103.8 116.775 82.175 134.075" stroke="white" stroke-width="10" stroke-linecap="round"/>
<path d="M86.5 86.5C64.875 82.175 51.9 108.125 38.925 116.775" stroke="white" stroke-width="10" stroke-linecap="round"/>
<path d="M86.5 86.5C64.875 73.525 47.575 90.825 38.925 56.225" stroke="white" stroke-width="10" stroke-linecap="round"/>
<path d="M90.825 45.845C94.6468 45.845 97.745 42.7468 97.745 38.925C97.745 35.1032 94.6468 32.005 90.825 32.005C87.0032 32.005 83.905 35.1032 83.905 38.925C83.905 42.7468 87.0032 45.845 90.825 45.845Z" fill="white"/>
<path d="M134.075 63.1451C137.897 63.1451 140.995 60.0469 140.995 56.2251C140.995 52.4032 137.897 49.3051 134.075 49.3051C130.253 49.3051 127.155 52.4032 127.155 56.2251C127.155 60.0469 130.253 63.1451 134.075 63.1451Z" fill="white"/>
<path d="M134.075 123.695C137.897 123.695 140.995 120.597 140.995 116.775C140.995 112.953 137.897 109.855 134.075 109.855C130.253 109.855 127.155 112.953 127.155 116.775C127.155 120.597 130.253 123.695 134.075 123.695Z" fill="white"/>
<path d="M82.1749 140.995C85.9967 140.995 89.0949 137.897 89.0949 134.075C89.0949 130.253 85.9967 127.155 82.1749 127.155C78.3531 127.155 75.2549 130.253 75.2549 134.075C75.2549 137.897 78.3531 140.995 82.1749 140.995Z" fill="white"/>
<path d="M38.9249 123.695C42.7467 123.695 45.8449 120.597 45.8449 116.775C45.8449 112.953 42.7467 109.855 38.9249 109.855C35.1031 109.855 32.0049 112.953 32.0049 116.775C32.0049 120.597 35.1031 123.695 38.9249 123.695Z" fill="white"/>
<path d="M38.9249 63.1451C42.7467 63.1451 45.8449 60.0469 45.8449 56.2251C45.8449 52.4032 42.7467 49.3051 38.9249 49.3051C35.1031 49.3051 32.0049 52.4032 32.0049 56.2251C32.0049 60.0469 35.1031 63.1451 38.9249 63.1451Z" fill="white"/>
</g>
<defs>
<clipPath id="clip0_12_33">
<rect width="173" height="173" fill="white"/>
</clipPath>
</defs>
</svg>
