<svg width="18" height="29" viewBox="0 0 18 29" fill="none" xmlns="http://www.w3.org/2000/svg">
<path d="M11.492 18.9979L6.38858 27.9002C6.35319 27.9619 6.28747 28 6.21631 28C6.10665 28 6.01775 27.9111 6.01775 27.8014V27.7414C6.01775 27.714 6.02212 27.6867 6.03068 27.6607L8.29093 20.785C8.35299 20.5962 8.38462 20.3987 8.38462 20.2V20.1241C8.38462 19.8347 8.14997 19.6 7.86051 19.6C7.80011 19.6 7.74017 19.6104 7.68333 19.6309L2.09669 21.6376C1.98181 21.6789 1.86067 21.7 1.73861 21.7H1.51872C1.38342 21.7 1.25347 21.6471 1.1566 21.5527C1.05647 21.4551 1 21.3211 1 21.1813V21.0108C1 20.872 1.03127 20.7351 1.09147 20.6101L10.341 1.40988C10.4617 1.1593 10.7153 1 10.9934 1C11.2783 1 11.5368 1.16706 11.6537 1.42684L16.9529 13.1954C16.9839 13.2644 17 13.3391 17 13.4147C17 13.5347 16.9596 13.6512 16.8852 13.7455L16.6744 14.0126C16.2978 14.49 15.6723 14.6959 15.0858 14.5356L14.7881 14.4542C14.201 14.2937 13.7202 13.8722 13.4843 13.3111L11.5808 8.78364C11.5085 8.61178 11.3403 8.5 11.1538 8.5C10.9655 8.5 10.7936 8.60716 10.7106 8.77625L7.50024 15.3211C7.47448 15.3736 7.4527 15.428 7.43509 15.4838L7.32097 15.8454C7.29003 15.9435 7.30384 16.0501 7.35871 16.1371C7.42272 16.2385 7.53427 16.3 7.6542 16.3H7.76923H10.9692C11.2817 16.3 11.5786 16.4365 11.7822 16.6737C11.9092 16.8217 11.9934 17.0017 12.0256 17.1941L12.0289 17.2134C12.0604 17.4015 12.0443 17.5944 11.9821 17.7747L11.7747 18.3754C11.7002 18.5913 11.6055 18.7997 11.492 18.9979Z" fill="#191919" stroke="#191919"/>
</svg>
