<svg width="256" height="256" viewBox="0 0 256 256" fill="none" xmlns="http://www.w3.org/2000/svg">
<g clip-path="url(#clip0_12_33)">
<path d="M204.8 0H51.2C22.923 0 0 22.923 0 51.2V204.8C0 233.077 22.923 256 51.2 256H204.8C233.077 256 256 233.077 256 204.8V51.2C256 22.923 233.077 0 204.8 0Z" fill="#1D4ED8"/>
<path d="M128 148.48C139.311 148.48 148.48 139.311 148.48 128C148.48 116.689 139.311 107.52 128 107.52C116.689 107.52 107.52 116.689 107.52 128C107.52 139.311 116.689 148.48 128 148.48Z" fill="white"/>
<path d="M128 128C147.2 108.8 108.8 83.2 134.4 57.6" stroke="white" stroke-width="10" stroke-linecap="round"/>
<path d="M128 128C160 134.4 166.4 96 198.4 83.2" stroke="white" stroke-width="10" stroke-linecap="round"/>
<path d="M128 128C153.6 160 185.6 134.4 198.4 172.8" stroke="white" stroke-width="10" stroke-linecap="round"/>
<path d="M128 128C102.4 147.2 153.6 172.8 121.6 198.4" stroke="white" stroke-width="10" stroke-linecap="round"/>
<path d="M128 128C96.0001 121.6 76.8001 160 57.6001 172.8" stroke="white" stroke-width="10" stroke-linecap="round"/>
<path d="M128 128C96.0001 108.8 70.4001 134.4 57.6001 83.2" stroke="white" stroke-width="10" stroke-linecap="round"/>
<path d="M134.4 67.84C140.056 67.84 144.64 63.2554 144.64 57.6C144.64 51.9446 140.056 47.36 134.4 47.36C128.745 47.36 124.16 51.9446 124.16 57.6C124.16 63.2554 128.745 67.84 134.4 67.84Z" fill="white"/>
<path d="M198.4 93.44C204.056 93.44 208.64 88.8554 208.64 83.2C208.64 77.5446 204.056 72.96 198.4 72.96C192.745 72.96 188.16 77.5446 188.16 83.2C188.16 88.8554 192.745 93.44 198.4 93.44Z" fill="white"/>
<path d="M198.4 183.04C204.056 183.04 208.64 178.455 208.64 172.8C208.64 167.145 204.056 162.56 198.4 162.56C192.745 162.56 188.16 167.145 188.16 172.8C188.16 178.455 192.745 183.04 198.4 183.04Z" fill="white"/>
<path d="M121.6 208.64C127.255 208.64 131.84 204.055 131.84 198.4C131.84 192.745 127.255 188.16 121.6 188.16C115.944 188.16 111.36 192.745 111.36 198.4C111.36 204.055 115.944 208.64 121.6 208.64Z" fill="white"/>
<path d="M57.5999 183.04C63.2553 183.04 67.8399 178.455 67.8399 172.8C67.8399 167.145 63.2553 162.56 57.5999 162.56C51.9445 162.56 47.3599 167.145 47.3599 172.8C47.3599 178.455 51.9445 183.04 57.5999 183.04Z" fill="white"/>
<path d="M57.5999 93.44C63.2553 93.44 67.8399 88.8554 67.8399 83.2C67.8399 77.5446 63.2553 72.96 57.5999 72.96C51.9445 72.96 47.3599 77.5446 47.3599 83.2C47.3599 88.8554 51.9445 93.44 57.5999 93.44Z" fill="white"/>
</g>
<defs>
<clipPath id="clip0_12_33">
<rect width="256" height="256" fill="white"/>
</clipPath>
</defs>
</svg> 