<svg width="179" height="303" viewBox="0 0 179 303" fill="none" xmlns="http://www.w3.org/2000/svg">
<path d="M117.062 201.653L60.609 300.891C60.219 301.577 59.4911 302 58.7024 302C57.4909 302 56.5089 301.018 56.5089 299.806V299.114C56.5089 298.81 56.5569 298.508 56.6512 298.219L81.6551 221.568C82.3423 219.462 82.6923 217.26 82.6923 215.044V214.147C82.6923 210.949 80.0993 208.356 76.9006 208.356C76.2284 208.356 75.5613 208.473 74.9293 208.701L13.1328 231.071C11.8616 231.531 10.5201 231.767 9.16833 231.767H6.76013C5.25001 231.767 3.80028 231.174 2.72311 230.115C1.62087 229.032 1 227.552 1 226.007V224.081C1 222.535 1.3459 221.01 2.01235 219.616L104.348 5.54123C105.675 2.76638 108.477 1 111.553 1C114.703 1 117.558 2.85175 118.843 5.72763L177.479 136.956C177.822 137.725 178 138.558 178 139.4C178 140.739 177.551 142.04 176.726 143.094L174.427 146.03C170.248 151.368 163.27 153.672 156.734 151.872L153.5 150.981C147.025 149.198 141.73 144.534 139.144 138.335L118.041 87.7525C117.248 85.8501 115.388 84.6111 113.327 84.6111C111.245 84.6111 109.345 85.7993 108.433 87.6716L72.9099 160.652C72.6242 161.239 72.3828 161.846 72.1877 162.469L70.9216 166.512C70.5817 167.597 70.7336 168.777 71.3372 169.741C72.0487 170.877 73.2948 171.567 74.6352 171.567H75.8846H111.239C114.723 171.567 118.032 173.095 120.291 175.748C121.688 177.389 122.612 179.378 122.966 181.504L123.008 181.754C123.356 183.848 123.178 185.996 122.49 188.004L120.198 194.697C119.372 197.109 118.322 199.437 117.062 201.653Z" fill="white" stroke="white"/>
</svg>
